HIERARCHY
ROOT Hips
{
  OFFSET 0.0000 0.0000 0.0000
  CHANNELS 6 Xposition Yposition Zposition Zrotation Xrotation Yrotation
  JOINT LeftHip
  {
    OFFSET 5.5000 -0.0000 -0.0000
    CHANNELS 3 Zrotation Xrotation Yrotation
    JOINT LeftKnee
    {
      OFFSET 0.0000 -17.5000 0.0000
      CHANNELS 3 Zrotation Xrotation Yrotation
      JOINT LeftAnkle
      {
        OFFSET 0.0000 -17.0000 0.0000
        CHANNELS 3 Zrotation Xrotation Yrotation
        End Site
        {
            OFFSET 0.0000 -4.7000 -2.0000
        }
      }
    }
  }
  JOINT RightHip
  {
    OFFSET -5.5000 -0.0000 0.0000
    CHANNELS 3 Zrotation Xrotation Yrotation
    JOINT RightKnee
    {
      OFFSET 0.0000 -17.5000 0.0000
      CHANNELS 3 Zrotation Xrotation Yrotation
      JOINT RightAnkle
      {
        OFFSET 0.0000 -17.0000 0.0000
        CHANNELS 3 Zrotation Xrotation Yrotation
        End Site
        {
            OFFSET 0.0000 -4.7000 -2.0000
        }
      }
    }
  }
  JOINT Chest
  {
    OFFSET -0.0000 3.0000 -1.0000
    CHANNELS 3 Zrotation Xrotation Yrotation
    JOINT LeftCollar
    {
      OFFSET 0.0000 18.0000 1.0000
      CHANNELS 3 Zrotation Xrotation Yrotation
      JOINT LeftShoulder
      {
        OFFSET 6.5000 0.0000 0.0000
        CHANNELS 3 Zrotation Xrotation Yrotation
        JOINT LeftElbow
        {
          OFFSET -0.0000 -11.0000 0.0000
          CHANNELS 3 Zrotation Xrotation Yrotation
          JOINT LeftWrist
          {
            OFFSET 0.0000 -10.5000 0.0000
            CHANNELS 3 Zrotation Xrotation Yrotation
            End Site
            {
                OFFSET 0.0000 -6.0000 0.0000
            }
          }
        }
      }
    }
    JOINT RightCollar
    {
      OFFSET 0.0000 18.0000 1.0000
      CHANNELS 3 Zrotation Xrotation Yrotation
      JOINT RightShoulder
      {
        OFFSET -6.5000 0.0000 0.0000
        CHANNELS 3 Zrotation Xrotation Yrotation
        JOINT RightElbow
        {
          OFFSET 0.0000 -11.0000 0.0000
          CHANNELS 3 Zrotation Xrotation Yrotation
          JOINT RightWrist
          {
            OFFSET -0.0000 -10.5000 0.0000
            CHANNELS 3 Zrotation Xrotation Yrotation
            End Site
            {
                OFFSET -0.0000 -6.0000 0.0000
            }
          }
        }
      }
    }
    JOINT Neck
    {
      OFFSET 0.0000 18.0000 1.0000
      CHANNELS 3 Zrotation Xrotation Yrotation
      JOINT Head
      {
        OFFSET -0.0000 3.0000 0.0000
        CHANNELS 3 Zrotation Xrotation Yrotation
        End Site
        {
            OFFSET 0.0000 7.0000 0.0000
        }
      }
    }
  }
}
MOTION
Frames:	30
Frame Time:	0.033333
-1.0975 39.4101 0.1351 0.39 -0.29 -12.35 -0.99 -1.79 0.44 -0.00 9.87 0.01 0.57 -6.95 0.10 1.39 -0.98 0.02 -0.00 9.52 -0.00 -1.84 -8.26 -1.66 -0.87 4.61 -1.25 0.00 0.00 0.00 5.00 -0.34 -4.46 0.00 -12.63 0.77 -3.90 1.43 -1.20 0.00 0.00 0.00 -7.77 -1.39 0.81 0.00 -15.17 -0.92 3.52 1.01 -1.46 0.00 0.00 0.00 9.05 6.34 -20.96 
-1.0497 39.4107 0.1455 0.38 -0.29 -12.35 -1.06 -1.79 0.45 -0.00 9.86 0.01 0.65 -6.95 0.11 1.31 -0.99 0.02 -0.00 9.52 -0.00 -1.76 -8.26 -1.65 -0.87 4.58 -1.25 0.00 0.00 0.00 5.00 -0.44 -4.45 -0.00 -12.65 0.77 -3.90 1.52 -1.20 0.00 0.00 0.00 -7.77 -1.49 0.80 -0.00 -15.19 -0.92 3.52 1.10 -1.45 0.00 0.00 0.00 9.03 5.69 -20.83 
-1.0046 39.4111 0.1553 0.38 -0.29 -12.35 -1.14 -1.79 0.45 0.00 9.86 0.01 0.72 -6.95 0.12 1.24 -0.99 0.03 0.00 9.52 -0.00 -1.68 -8.26 -1.65 -0.86 4.57 -1.25 0.00 0.00 0.00 5.01 -0.37 -4.46 0.00 -12.60 0.76 -3.90 1.44 -1.20 0.00 0.00 0.00 -7.77 -1.42 0.81 0.00 -15.13 -0.91 3.52 1.02 -1.46 0.00 0.00 0.00 9.02 5.36 -20.76 
-0.9885 39.4137 0.1179 0.38 -0.29 -12.35 -1.14 -1.86 0.46 -0.00 9.86 0.01 0.73 -6.89 0.12 1.23 -1.03 0.03 -0.00 9.48 -0.00 -1.67 -8.17 -1.65 -0.86 4.57 -1.25 0.00 0.00 0.00 5.01 -0.33 -4.46 0.00 -12.60 0.76 -3.90 1.41 -1.20 0.00 0.00 0.00 -7.77 -1.38 0.81 -0.00 -15.13 -0.91 3.58 0.99 -1.46 0.00 0.00 0.00 9.01 5.26 -20.75 
-0.9765 39.4155 0.0883 0.37 -0.29 -12.35 -1.15 -1.91 0.46 -0.00 9.86 0.01 0.74 -6.84 0.12 1.22 -1.08 0.03 0.00 9.47 -0.00 -1.66 -8.11 -1.64 -0.86 4.53 -1.24 0.00 0.00 0.00 5.01 -0.41 -4.45 0.00 -12.62 0.76 -3.90 1.50 -1.20 0.00 0.00 0.00 -7.77 -1.46 0.81 -0.00 -15.16 -0.91 3.62 1.07 -1.46 0.00 0.00 0.00 8.97 4.85 -20.65 
-0.9759 39.4156 0.0869 0.37 -0.29 -12.35 -1.15 -1.91 0.46 0.00 9.86 0.01 0.74 -6.84 0.12 1.22 -1.08 0.03 -0.00 9.46 -0.00 -1.66 -8.11 -1.64 -0.86 4.52 -1.24 0.00 0.00 0.00 5.01 -0.33 -4.46 0.00 -12.58 0.76 -3.90 1.42 -1.20 0.00 0.00 0.00 -7.77 -1.38 0.81 -0.00 -15.11 -0.91 3.64 1.00 -1.46 0.00 0.00 0.00 8.96 4.84 -20.65 
-0.9758 39.4153 0.0864 0.37 -0.29 -12.35 -1.14 -1.92 0.46 -0.00 9.88 0.01 0.74 -6.85 0.12 1.22 -1.08 0.03 0.00 9.45 -0.00 -1.66 -8.11 -1.64 -0.86 4.51 -1.24 0.00 0.00 0.00 5.01 -0.29 -4.47 0.00 -12.58 0.76 -3.90 1.40 -1.19 0.00 0.00 0.00 -7.76 -1.34 0.82 0.00 -15.12 -0.91 3.66 0.98 -1.46 0.00 0.00 0.00 8.97 5.14 -20.71 
-0.9757 39.4153 0.0861 0.37 -0.29 -12.35 -1.14 -1.91 0.46 -0.00 9.88 0.01 0.74 -6.85 0.12 1.22 -1.08 0.03 0.00 9.45 -0.00 -1.66 -8.11 -1.64 -0.86 4.51 -1.24 0.00 0.00 0.00 5.01 -0.26 -4.47 0.00 -12.60 0.76 -3.90 1.40 -1.20 0.00 0.00 0.00 -7.76 -1.31 0.82 -0.00 -15.13 -0.91 3.67 0.98 -1.46 0.00 0.00 0.00 8.97 5.22 -20.73 
-0.9757 39.4153 0.0861 0.37 -0.29 -12.35 -1.14 -1.91 0.45 0.00 9.87 0.01 0.73 -6.85 0.12 1.22 -1.07 0.03 0.00 9.45 -0.00 -1.66 -8.11 -1.64 -0.86 4.51 -1.24 0.00 0.00 0.00 5.01 -0.25 -4.47 0.00 -12.61 0.76 -3.90 1.41 -1.20 0.00 0.00 0.00 -7.76 -1.30 0.82 -0.00 -15.14 -0.91 3.67 0.99 -1.46 0.00 0.00 0.00 8.97 5.53 -20.79 
-0.9756 39.4153 0.0860 0.37 -0.29 -12.35 -1.14 -1.90 0.45 -0.00 9.87 0.01 0.73 -6.85 0.13 1.22 -1.07 0.03 -0.00 9.45 -0.00 -1.66 -8.11 -1.64 -0.86 4.51 -1.24 0.00 0.00 0.00 5.01 -0.24 -4.47 0.00 -12.62 0.76 -3.90 1.42 -1.20 0.00 0.00 0.00 -7.76 -1.29 0.82 0.00 -15.15 -0.91 3.67 0.99 -1.46 0.00 0.00 0.00 8.98 5.75 -20.83 
-0.9756 39.4153 0.0860 0.37 -0.29 -12.35 -1.14 -1.90 0.45 0.00 9.87 0.01 0.73 -6.85 0.13 1.22 -1.07 0.03 -0.00 9.45 -0.00 -1.66 -8.11 -1.64 -0.86 4.51 -1.24 0.00 0.00 0.00 5.14 -0.24 -4.35 -0.00 -12.63 0.82 -3.97 1.43 -1.27 0.00 0.00 0.00 -7.64 -1.29 0.82 -0.00 -15.16 -0.92 3.61 1.00 -1.43 0.00 0.00 0.00 8.98 5.78 -20.83 
-0.9756 39.4153 0.0860 0.37 -0.29 -12.35 -1.14 -1.89 0.45 0.00 9.86 0.01 0.73 -6.86 0.13 1.22 -1.07 0.03 0.00 9.45 -0.00 -1.66 -8.11 -1.64 -0.86 4.51 -1.24 0.00 0.00 0.00 5.17 -0.24 -4.29 -0.00 -12.63 0.81 -3.97 1.43 -1.27 0.00 0.00 0.00 -7.60 -1.29 0.82 0.00 -15.16 -0.92 3.62 1.01 -1.44 0.00 0.00 0.00 8.97 5.51 -20.78 
-0.9755 39.4153 0.0859 0.37 -0.29 -12.35 -1.13 -1.89 0.45 0.00 9.86 0.01 0.73 -6.86 0.13 1.22 -1.07 0.03 0.00 9.45 -0.00 -1.66 -8.11 -1.64 -0.86 4.51 -1.24 0.00 0.00 0.00 5.18 -0.24 -4.27 -0.00 -12.63 0.80 -3.95 1.43 -1.25 0.00 0.00 0.00 -7.59 -1.29 0.82 0.00 -15.16 -0.91 3.63 1.01 -1.45 0.00 0.00 0.00 8.94 5.41 -20.74 
-0.9756 39.4154 0.0862 0.37 -0.29 -12.35 -1.13 -1.88 0.45 -0.00 9.84 0.01 0.73 -6.85 0.13 1.22 -1.07 0.03 0.00 9.45 -0.00 -1.66 -8.11 -1.64 -0.86 4.51 -1.24 0.00 0.00 0.00 5.18 -0.23 -4.26 0.00 -12.64 0.79 -3.93 1.43 -1.23 0.00 0.00 0.00 -7.60 -1.28 0.82 0.00 -15.16 -0.91 3.65 1.01 -1.45 0.00 0.00 0.00 8.93 5.29 -20.72 
-0.9756 39.4153 0.0864 0.37 -0.29 -12.35 -1.13 -1.88 0.45 -0.00 9.85 0.01 0.72 -6.86 0.13 1.22 -1.07 0.03 -0.00 9.45 -0.00 -1.66 -8.11 -1.64 -0.86 4.51 -1.24 0.00 0.00 0.00 5.18 -0.23 -4.25 0.00 -12.64 0.78 -3.92 1.43 -1.22 0.00 0.00 0.00 -7.60 -1.28 0.82 0.00 -15.17 -0.91 3.66 1.01 -1.46 0.00 0.00 0.00 8.84 5.26 -20.69 
-0.9821 39.4129 0.1165 0.37 -0.29 -12.35 -1.13 -1.83 0.45 -0.00 9.86 0.01 0.72 -6.92 0.13 1.22 -1.04 0.03 -0.00 9.49 -0.00 -1.66 -8.18 -1.64 -0.86 4.51 -1.24 0.00 0.00 0.00 5.17 -0.23 -4.25 -0.00 -12.63 0.77 -3.91 1.43 -1.21 0.00 0.00 0.00 -7.60 -1.28 0.82 -0.00 -15.17 -0.91 3.67 1.01 -1.46 0.00 0.00 0.00 8.71 5.21 -20.66 
-0.9826 39.4120 0.1192 0.38 -0.29 -12.35 -1.13 -1.83 0.45 -0.00 9.87 0.01 0.72 -6.93 0.13 1.22 -1.06 0.03 -0.00 9.54 -0.00 -1.66 -8.21 -1.64 -0.86 4.51 -1.24 0.00 0.00 0.00 5.17 -0.23 -4.25 -0.00 -12.63 0.77 -3.90 1.43 -1.21 0.00 0.00 0.00 -7.60 -1.28 0.82 -0.00 -15.17 -0.91 3.67 1.01 -1.46 0.00 0.00 0.00 8.44 5.40 -20.47 
-0.9384 39.4106 0.1447 0.38 -0.29 -12.35 -1.21 -1.80 0.46 -0.00 9.87 0.01 0.80 -6.95 0.14 1.14 -1.07 0.03 -0.00 9.62 -0.00 -1.58 -8.28 -1.64 -0.86 4.50 -1.24 0.00 0.00 0.00 5.17 -0.24 -4.25 0.00 -12.64 0.77 -3.91 1.44 -1.20 0.00 0.00 0.00 -7.60 -1.29 0.82 -0.00 -15.17 -0.91 3.67 1.02 -1.46 0.00 0.00 0.00 8.08 5.34 -20.08 
-0.9030 39.4104 0.1532 0.38 -0.31 -12.34 -1.27 -1.78 0.47 -0.00 9.86 0.01 0.86 -6.95 0.12 1.07 -1.07 0.05 -0.00 9.66 -0.00 -1.52 -8.30 -1.65 -0.84 4.49 -1.23 0.00 0.00 0.00 5.18 -0.24 -4.24 0.00 -12.63 0.77 -3.92 1.45 -1.21 0.00 0.00 0.00 -7.60 -1.29 0.82 0.00 -15.17 -0.91 3.66 1.03 -1.47 0.00 0.00 0.00 7.57 5.65 -19.36 
-0.9044 39.4102 0.1507 0.39 -0.33 -12.32 -1.28 -1.77 0.49 -0.00 9.86 0.02 0.85 -6.94 0.09 1.06 -1.06 0.06 0.00 9.68 0.00 -1.52 -8.31 -1.69 -0.83 4.45 -1.22 0.00 0.00 0.00 5.18 -0.25 -4.24 -0.00 -12.61 0.76 -3.94 1.48 -1.22 0.00 0.00 0.00 -7.59 -1.30 0.82 -0.00 -15.15 -0.91 3.64 1.06 -1.48 0.00 0.00 0.00 7.08 6.44 -18.46 
-0.9150 39.4109 0.1320 0.40 -0.36 -12.30 -1.27 -1.77 0.49 0.00 9.86 0.02 0.82 -6.91 0.05 1.07 -1.07 0.07 -0.00 9.70 0.00 -1.55 -8.30 -1.72 -0.81 4.42 -1.21 0.00 0.00 0.00 5.18 -0.23 -4.24 0.00 -12.60 0.76 -3.95 1.48 -1.23 0.00 0.00 0.00 -7.59 -1.28 0.82 -0.00 -15.14 -0.91 3.63 1.06 -1.48 0.00 0.00 0.00 6.52 7.29 -17.35 
-0.9349 39.4124 0.0951 0.41 -0.40 -12.27 -1.24 -1.79 0.50 0.00 9.85 0.02 0.77 -6.85 0.02 1.09 -1.09 0.08 -0.00 9.71 0.00 -1.60 -8.25 -1.76 -0.79 4.41 -1.21 0.00 0.00 0.00 5.18 -0.22 -4.24 0.00 -12.61 0.76 -3.96 1.48 -1.23 0.00 0.00 0.00 -7.59 -1.26 0.82 0.00 -15.14 -0.91 3.62 1.06 -1.49 0.00 0.00 0.00 6.04 8.28 -16.12 
-0.9578 39.4140 0.0481 0.43 -0.44 -12.25 -1.20 -1.83 0.50 0.00 9.86 0.01 0.71 -6.78 -0.02 1.13 -1.13 0.08 0.00 9.72 -0.00 -1.65 -8.20 -1.79 -0.75 4.40 -1.20 0.00 0.00 0.00 5.29 -0.31 -4.24 0.00 -12.66 0.76 -4.04 1.55 -1.21 0.00 0.00 0.00 -7.48 -1.25 0.84 0.00 -15.15 -0.91 3.54 1.06 -1.47 0.00 0.00 0.00 5.71 9.30 -14.93 
-0.9794 39.4128 0.0555 0.45 -0.47 -12.22 -1.19 -1.79 0.51 0.00 9.85 0.01 0.68 -6.79 -0.06 1.14 -1.09 0.08 -0.00 9.76 -0.00 -1.69 -8.24 -1.83 -0.70 4.40 -1.19 0.00 0.00 0.00 5.42 -0.35 -4.22 -0.00 -12.67 0.76 -4.12 1.54 -1.22 0.00 0.00 0.00 -7.35 -1.24 0.85 -0.00 -15.15 -0.91 3.46 1.06 -1.47 0.00 0.00 0.00 5.22 10.40 -13.79 
-1.0056 39.4119 0.0620 0.46 -0.49 -12.18 -1.16 -1.75 0.51 -0.00 9.84 0.02 0.63 -6.80 -0.11 1.16 -1.06 0.09 0.00 9.78 -0.00 -1.73 -8.28 -1.88 -0.68 4.42 -1.18 0.00 0.00 0.00 5.29 -0.36 -4.22 0.00 -12.66 0.77 -4.01 1.50 -1.25 0.00 0.00 0.00 -7.48 -1.22 0.86 -0.00 -15.16 -0.91 3.57 1.03 -1.52 0.00 0.00 0.00 4.84 11.14 -12.99 
-1.0290 39.4116 0.0650 0.49 -0.50 -12.14 -1.14 -1.73 0.52 -0.00 9.80 0.02 0.59 -6.78 -0.16 1.18 -1.05 0.09 -0.00 9.79 -0.00 -1.77 -8.30 -1.93 -0.64 4.46 -1.17 0.00 0.00 0.00 5.35 -0.35 -4.20 -0.00 -12.67 0.77 -4.10 1.44 -1.25 0.00 0.00 0.00 -7.42 -1.21 0.88 0.00 -15.18 -0.91 3.53 1.00 -1.52 0.00 0.00 0.00 4.56 11.59 -12.49 
-1.0227 39.4147 0.0072 0.50 -0.50 -12.09 -1.14 -1.83 0.53 0.00 9.80 0.02 0.58 -6.67 -0.23 1.17 -1.14 0.10 -0.00 9.79 -0.00 -1.78 -8.21 -1.99 -0.62 4.49 -1.16 0.00 0.00 0.00 5.34 -0.37 -4.20 -0.00 -12.67 0.77 -4.10 1.43 -1.27 0.00 0.00 0.00 -7.43 -1.22 0.88 -0.00 -15.19 -0.92 3.56 1.00 -1.53 0.00 0.00 0.00 4.28 11.62 -12.13 
-1.0131 39.4177 -0.0488 0.51 -0.49 -12.03 -1.14 -1.94 0.55 0.00 9.78 0.02 0.57 -6.56 -0.32 1.17 -1.23 0.12 -0.00 9.79 0.00 -1.79 -8.12 -2.07 -0.61 4.54 -1.14 0.00 0.00 0.00 5.32 -0.38 -4.20 0.00 -12.69 0.77 -4.09 1.41 -1.29 0.00 0.00 0.00 -7.45 -1.12 0.88 0.00 -15.16 -0.92 3.60 0.90 -1.55 0.00 0.00 0.00 4.06 12.05 -11.90 
-1.0139 39.4184 -0.0648 0.53 -0.49 -11.96 -1.14 -1.99 0.56 0.00 9.78 0.02 0.56 -6.52 -0.40 1.17 -1.26 0.13 0.00 9.79 0.00 -1.80 -8.11 -2.15 -0.62 4.59 -1.13 0.00 0.00 0.00 5.31 -0.41 -4.20 -0.00 -12.71 0.77 -4.07 1.41 -1.30 0.00 0.00 0.00 -7.46 -1.09 0.87 -0.00 -15.19 -0.92 3.62 0.90 -1.56 0.00 0.00 0.00 3.93 12.94 -11.69 
-1.0147 39.4174 -0.0580 0.54 -0.48 -11.89 -1.14 -2.00 0.57 -0.00 9.79 0.02 0.55 -6.52 -0.48 1.17 -1.27 0.14 0.00 9.83 0.00 -1.80 -8.15 -2.22 -0.62 4.61 -1.13 0.00 0.00 0.00 5.18 -0.33 -4.19 0.00 -12.65 0.78 -4.00 1.34 -1.34 0.00 0.00 0.00 -7.58 -1.11 0.87 0.00 -15.21 -0.92 3.70 0.93 -1.60 0.00 0.00 0.00 3.74 12.65 -11.38 
